<?xml version="1.0" encoding="UTF-8"?>
<svg viewBox="0 0 350 448.31" xmlns="http://www.w3.org/2000/svg" xmlns:xlink="http://www.w3.org/1999/xlink">
 <defs>
  <linearGradient id="a">
   <stop stop-color="#501616" offset="0"/>
   <stop stop-color="#803300" offset="1"/>
  </linearGradient>
  <linearGradient id="e">
   <stop offset="0"/>
   <stop stop-opacity="0" offset="1"/>
  </linearGradient>
  <linearGradient id="b">
   <stop stop-color="#ff1b24" offset="0"/>
   <stop stop-color="#ee2026" stop-opacity=".99608" offset=".125"/>
   <stop stop-color="#ee002b" stop-opacity=".98824" offset=".375"/>
   <stop stop-color="#ee322e" stop-opacity=".98995" offset=".63542"/>
   <stop stop-color="#ee1b24" stop-opacity=".99497" offset="1"/>
  </linearGradient>
  <linearGradient id="s" x1="754.88" x2="777.82" gradientUnits="userSpaceOnUse">
   <stop stop-color="#ff1b24" offset="0"/>
   <stop stop-color="#ee2026" stop-opacity=".99608" offset=".125"/>
   <stop stop-color="#ee002b" stop-opacity=".98824" offset=".375"/>
   <stop stop-color="#ee322e" stop-opacity=".98995" offset=".5"/>
   <stop stop-color="#ee1b24" stop-opacity=".99497" offset="1"/>
  </linearGradient>
  <linearGradient id="n" x1="992.97" x2="992.49" y1="468.86" y2="17.862" gradientUnits="userSpaceOnUse">
   <stop stop-color="#93d8f9" offset="0"/>
   <stop stop-color="#fff" offset=".37361"/>
   <stop stop-color="#fff" offset=".75"/>
   <stop stop-color="#cbeafc" offset="1"/>
  </linearGradient>
  <linearGradient id="m" x1="641.97" x2="642.22" y1="305.2" y2="291.2" gradientUnits="userSpaceOnUse">
   <stop stop-color="#6c5d53" offset="0"/>
   <stop stop-color="#6c5d53" stop-opacity="0" offset="1"/>
  </linearGradient>
  <linearGradient id="f" x1="808.58" x2="815.05" y1="334.82" y2="459.22" gradientUnits="userSpaceOnUse">
   <stop stop-color="#6b0b00" stop-opacity=".29648" offset="0"/>
   <stop stop-color="#74bcca" stop-opacity=".23746" offset="1"/>
  </linearGradient>
  <linearGradient id="t" x1="860.2" x2="889.74" gradientUnits="userSpaceOnUse" xlink:href="#b"/>
  <linearGradient id="r" x1="868.54" x2="868.5" y1="186.36" y2="192.25" gradientUnits="userSpaceOnUse" xlink:href="#e"/>
  <linearGradient id="q" x1="767.82" x2="767.78" y1="193.09" y2="198.98" gradientUnits="userSpaceOnUse" xlink:href="#e"/>
  <linearGradient id="c" x1="825.18" x2="927.69" gradientUnits="userSpaceOnUse" xlink:href="#b"/>
  <linearGradient id="d" x1="716.49" x2="813.62" gradientUnits="userSpaceOnUse" xlink:href="#b"/>
  <linearGradient id="p" x1="710.32" x2="952.47" gradientUnits="userSpaceOnUse" xlink:href="#b"/>
  <linearGradient id="o" x1="800.8" x2="813.79" gradientUnits="userSpaceOnUse" xlink:href="#b"/>
  <linearGradient id="l" x1="751.38" x2="779.41" gradientUnits="userSpaceOnUse" xlink:href="#a"/>
  <linearGradient id="k" x1="729.44" x2="730.19" y1="362.74" y2="336.74" gradientUnits="userSpaceOnUse" xlink:href="#a"/>
  <linearGradient id="j" x1="799.03" x2="800.62" y1="357.08" y2="335.08" gradientUnits="userSpaceOnUse" xlink:href="#a"/>
  <linearGradient id="i" x1="830.09" x2="841.75" y1="380.3" y2="357.3" gradientUnits="userSpaceOnUse" xlink:href="#a"/>
  <linearGradient id="h" x1="860.47" x2="889.75" gradientUnits="userSpaceOnUse" xlink:href="#a"/>
  <linearGradient id="g" x1="912.12" x2="913.72" y1="360.58" y2="336.58" gradientUnits="userSpaceOnUse" xlink:href="#a"/>
 </defs>
 <g transform="matrix(.99851 0 0 .99851 -641.01 -18.344)">
  <path d="m642.69933,18.36925h349.06289a.73009,.73009 0 0,1 .73009.73009v447.52441a.73009,.73009 0 0,1 -.73009.73009h-349.06289a.73009,.73009 0 0,1 -.73009-.73009v-447.52441a.73009,.73009 0 0,1 .73009-.73009" fill="url(#n)"/>
  <path d="m704.56 292.25c-10.813-0.0571-21.771 2.5357-32.594 3.4375-9.214 0.76773-18.358 3.1015-27.594 3.125-0.71209 2e-3 -1.5329-0.037-2.4062-0.0937v5.4375l303.25-1.4688s-15.577-5.7387-23.625-7c-24.323-3.8123-49.069-1.8617-73.594-1.5625-5.6964 0.0695-11.368 0.56817-17.062 0.78125-35.463 1.3271-71.541 11.091-106.41 3.125-3.2664-0.74634-5.915-3.9813-9.1875-4.6875-3.5602-0.76824-7.1769-1.0747-10.781-1.0938z" fill="url(#m)"/>
  <path d="m992.23 302.96-325.8 1.2857 10.51-5.7857s9.6148 1.2959 14.451 1.2857c9.2358-0.0194 18.374-1.9374 27.588-2.5714 14.431-0.99295 29.111-4.4662 43.352-1.9286 3.2725 0.58315 5.9295 3.2408 9.1959 3.8571 34.865 6.5787 70.946-1.4755 106.41-2.5714 5.694-0.17596 11.382-0.58547 17.078-0.64286 24.525-0.24709 49.244-1.8625 73.567 1.2857 8.0476 1.0416 23.647 5.7857 23.647 5.7857z" fill="#ac9d93"/>
  <g transform="translate(11)">
   <path d="m768.48 311.02 1.6245 10.3 31.33-0.46415 1.8566-9.4434z" fill="#be091b"/>
   <path d="m768.48 308.32 1.7033 4 32.85-0.18025 1.9467-3.6673z" fill="#690108"/>
  </g>
  <g transform="translate(10)">
   <path d="m766.48 265.02 1.6245 10.3 31.33-0.46415 1.8566-9.4434z" fill="#be091b"/>
   <path d="m766.48 263.32 1.7033 4 32.85-0.18025 1.9467-3.6673z" fill="#690108"/>
  </g>
  <path d="m957.45 125.85-5.5698 19.03-6.4981-10.211z" fill="#8c0516"/>
  <path d="m696.03 172.72s29.283 1.4984 43.937 1.5296c13.809 0.0294 41.408-1.2648 41.408-1.2648l-0.32056 3.8502 40.352-2.4913 0.90592-3.1707s36.756-4.8149 54.902-8.5122c16.865-3.4361 50.052-12.683 50.052-12.683 8.9654-7.3323 10.343-7.187 19.704-16.666l12.683 23.554h-9.9652l-2.5501 3.1711-6.0781 0.45612-7.2255 4.0731-87.422 13.136-109.62 7.7004-18.571-8.7004-18.118-1.2648z" fill="#3c0000"/>
  <path d="m725.34 190.78 2.0887 1.6245s50.015-0.57298 74.961-2.1774c27.464-1.7664 54.819-5.0068 82.155-8.1944 16.655-1.9422 49.862-6.6585 49.862-6.6585l-9.6404-0.61549z" fill="#382321"/>
  <path d="m907.92 217.56h4.1774l1.6245-9.2432-4.8736 0.24982z" fill="#250701"/>
  <path d="m814.72 184.1 4.6415 34.811h1.8566l8.8189-34.347z" fill="#330100"/>
  <path d="m727.57 218.55 4.6415 8.3547s49.519-1.9767 74.264-3.2491c34.052-1.7509 102.11-6.034 102.11-6.034l0.46415-9.7472z" fill="#b81018"/>
  <path d="m914.52 202.61-0.46415 6.266h3.7132l0.23207-5.5698z"/>
  <path d="m722.09 214.61s59.349-0.23785 88.959-1.9692c34.657-2.0265 103.68-9.8462 103.68-9.8462l-0.62564 5.9077s-69.83 6.6367-104.84 8.5333c-28.553 1.5468-85.752 2.3181-85.752 2.3181z" fill="#cf2025"/>
  <path d="m795.78 185.57 23.672-1.3208 0.32077 34.276-1.2491-0.30378-0.68204-4.2394-18.099 0.88251 0.23207 4.821h-1.5528z" fill="#690108"/>
  <path d="m718.78 181.61 5.3022 9.2789 71.58-2.6511 1.3256-1.3256 17.895-1.9883 3.9767 2.6511 52.36-6.6278 54.348-5.965 1.3256-13.918z" fill="#9e0c0c"/>
  <path d="m931.39 160.11h10.123l-1.5125-9.5948-4.6648-2.2411-6.9623 5.5698z" fill="#600700"/>
  <path d="m710.32 171.49 1.6237 11.683s64.138-0.97655 96.021-4.0971c41.507-4.0624 123.66-19.004 123.66-19.004l0.90592-4.8885 8.3415-4.6237 6.1533 9.5122 5.4355-3.6237-10.871-15.76-108.59 24.882z" fill="url(#p)"/>
  <g transform="translate(508.05 32.751)">
   <path d="m193.53 121.6s42.304 6.8234 65.019 5.7261c28.714-1.387 59.385-3.639 88.721-8.2885 27.453-4.3509 54.726-10.325 81.354-18.296 7.2142-2.1594 21.139-7.9682 21.139-7.9682l-10.89 10.89s-34.362 10.343-51.887 14.093c-29.488 6.3101-59.273 12.094-89.362 14.093-31.435 2.0887-94.486-2.242-94.486-2.242z" fill="#eb1923"/>
   <path d="m440.72 102.38-4.6875 0.53125c-2.4089 0.72299-34.162 10.234-51.031 13.844-29.488 6.3101-59.286 12.095-89.375 14.094-26.71 1.7747-73.961-0.94387-88.25-1.8438l-5.875 0.65625-13.812 10.156s26.297 1.8126 39.469 2c15.032 0.21387 45.094-1 45.094-1l-0.0937 3.5 42.375-2.2188 0.28125-3.1875s33.13-3.8347 49.469-7.0938c19.406-3.8708 57.5-14.781 57.5-14.781s7.1466-4.5039 10.469-7.0938c2.9865-2.3282 8.4688-7.5625 8.4688-7.5625z" fill="#a01113"/>
  </g>
  <path d="m934.01 175.42 1.3925-14.157-9.051-0.23207-0.9283 14.157z" fill="#6c0001"/>
  <g transform="translate(-1,-3)">
   <path d="m790.96 260.76h23.511l-0.53585 3.7132-22.102 0.39245z" fill="#f01a1d"/>
   <path d="m795.9 263.67 2.6256 21.99 0.65641 64.656 14.441 1.3128-1.641-26.913-2.2974-27.241-1.641-33.477z" fill="url(#d)"/>
   <path d="m788.73 261.18h27.153s-6.7287-2.3524-9.9698-3.8232c-1.4372-0.65217-4.1868-2.2108-4.1868-2.2108s-3.3655 2.0029-5.1299 2.846c-2.5528 1.2199-7.8663 3.1879-7.8663 3.1879z" fill="#350000"/>
   <path d="m804.59375,334.3125c-1.43708,1.87571 3.93323,5.61396-.4375,6.625-2.31016.28108.44435-4.94095-1.875-4.75-1.47295.12127.97027,4.06932-.46875,4.40625-1.76617.41354-1.29757-4.79149-2.78125-4.90625l.15625,23.625h.0625c.3292,2.32489 3.66148,2.53125 7.65625,2.53125 3.80944,0 6.96213-.34272 7.5625-2.21875h.15625l-.0625-.5625c.002-.0438.0312-.0798.0312-.125h-.0312l-2-24.59375c-1.6218.0968-.0874,5.68694-1.90625,5.34375-.98823-.18646.71111-2.32014 0-3.03125-.54701-.54701-1.7455-.49045-2.34375,0-.91514.75024.42838,3.10611-.6875,3.5-.56974.20111-1.11184-.65989-1.40625-1.1875-.45432-2.03599-.36097-3.40174-1.625-4.65625z" fill="url(#j)"/>
  </g>
  <path d="m766.48 265.02 1.6245 10.3 31.33-0.46415 1.8566-9.4434z" fill="#be091b"/>
  <path d="m766.48 263.32 1.7033 4 32.85-0.18025 1.9467-3.6673z" fill="#690108"/>
  <path d="m768.48 311.02 1.6245 10.3 31.33-0.46415 1.8566-9.4434z" fill="#be091b"/>
  <path d="m768.48 308.32 1.7033 4 32.85-0.18025 1.9467-3.6673z" fill="#690108"/>
  <path d="m759.63 195.77s-2.2794 99.675-3.5949 117.56c-0.36213 4.9231 2.1242 6.882 2.282 10.441 0.34387 7.7536-2.9385 23.097-2.9385 23.097l21.944-0.0308s-2.0979-22.795-2.5949-34.226c-1.692-38.913-1.3128-116.84-1.3128-116.84z" fill="url(#s)"/>
  <path d="m727.48 265.02 1.6245 10.3 31.33-0.46415 1.8566-9.4434z" fill="#be091b"/>
  <g transform="translate(13)">
   <path d="m880.75 313.99 1.6245 10.3 31.33-0.46415 1.8566-9.4434z" fill="#be091b"/>
   <path d="m881.48 311.32 1.7033 4 32.85-0.18025 1.9467-3.6673z" fill="#690108"/>
  </g>
  <g transform="translate(12,-47)">
   <path d="m880.75 313.99 1.6245 10.3 31.33-0.46415 1.8566-9.4434z" fill="#be091b"/>
   <path d="m881.48 311.32 1.7033 4 32.85-0.18025 1.9467-3.6673z" fill="#690108"/>
  </g>
  <path d="m908.2 261.04 12.604 0.46416s2.2567 31.244 3.1774 46.879c0.72848 12.371 0.63766 24.799 1.8566 37.132 0.41537 4.2025 1.8566 12.532 1.8566 12.532l-14.389 2.7849s-1.0381-18.561-1.3925-27.849c-0.44845-11.754-0.328-23.528-0.9283-35.276-0.62558-12.242-2.7849-36.668-2.7849-36.668z" fill="url(#c)"/>
  <path d="m900.51 257.04 27.385-0.46415s-6.907-1.9584-10.202-3.3591c-1.4524-0.61742-4.1868-2.2108-4.1868-2.2108s-3.3655 2.0029-5.1299 2.846c-2.5528 1.2199-7.8663 3.1879-7.8663 3.1879z" fill="#350000"/>
  <path d="m912.125,337.65625c.37827,8.36651.89897,17.96316 1.0625,20.9375h-.25c.045.6931.17005,1.3002.34375,1.8125 .001.0201.0312.4375.0312.4375l.125-.0312c1.08447,2.46138 3.75795,2.6875 6.875,2.6875 4.08915,0 7.40625-.76254 7.40625-5.5625h-.0625c-.0374-.21923-1.40271-8.29143-1.8125-12.4375-.1493-1.51059-.29233-3.01809-.40625-4.53125-.65512.67949-1.88879.73635-5.03125-2.90625-.91517-1.06082.8533,3.6925-.46875,4.15625-1.03235.36213-1.25191-2.04413-2.3125-2.3125-.80674-.20414-1.83536.0853-2.375.71875-.654.76772.58925,2.83846-.40625,3-2.12567.34493-.82212-5.47263-2.71875-5.96875z" fill="url(#g)"/>
  <path d="m879.75 266.99 1.6245 10.3 31.33-0.46415 1.8566-9.4434z" fill="#be091b"/>
  <path d="m880.75 313.99 1.6245 10.3 31.33-0.46415 1.8566-9.4434z" fill="#be091b"/>
  <path d="m881.48 311.32 1.7033 4 32.85-0.18025 1.9467-3.6673z" fill="#690108"/>
  <path d="m880.48 264.32 1.7033 4 32.85-0.18025 1.9467-3.6673z" fill="#690108"/>
  <path d="m860.2 187.82s0.5564 92.004 2.5114 136.53c0.56686 12.912-1.855 38.728-1.855 38.728h28.882s-3.545-24.012-2.9385-36.103c0.67368-13.429-1.1646-27.596-2.3128-41.354-0.9887-11.847-2.64-23.629-3.9385-35.446-0.76922-7.0008-1.7605-13.982-2.2821-21.005-1.0217-13.758-1.6564-41.354-1.6564-41.354z" fill="url(#t)"/>
  <path d="m864.72 188.81-4.5312 0.1875c7e-5 0.0109-4.8e-4 1.0792 0 1.1562 0 0 5.6423 0.77863 8.4688 0.625 2.697-0.14659 7.9688-1.4688 7.9688-1.4688-9.6e-4 -0.0411 0-0.5 0-0.5z" fill="url(#r)"/>
  <path d="m855.13 183.08 0.92831 6.7302 24.368-1.3925-0.82424-8.5188z" fill="#f01c2a"/>
  <path d="m800.8 189.13 1.5491 23.1 11.447-0.67712-1.6245-23.511z" fill="url(#o)"/>
  <path d="m726.48 311.02 1.6245 10.3 31.33-0.46415 1.8566-9.4434z" fill="#be091b"/>
  <path d="m727.48 262.32 1.7033 4 32.85-0.18025 1.9467-3.6673z" fill="#690108"/>
  <path d="m727.48 308.32 1.7033 4 32.85-0.18025 1.9467-3.6673z" fill="#690108"/>
  <path d="m716.49 257.09s2.4486 40.909 2.9385 61.39c0.22498 9.4059 0 28.226 0 28.226l0.3282 12.472 14.441-0.32821s-0.41967-16.423-0.98462-24.615c-0.3857-5.593-1.641-16.738-1.641-16.738s-1.3908-27.347-1.9538-41.026c-0.26559-6.4531-0.6718-19.364-0.6718-19.364z" fill="url(#d)"/>
  <path d="m825.18 257.33h16.102s0.74076 23.838 1.4642 35.74c1.7516 28.818 6.9623 86.332 6.9623 86.332l-18.102 1.3924s-1.5099-5.523-1.8566-8.3547c-1.5047-12.289-0.52615-24.757-0.9283-37.132-0.25147-7.738-0.58205-15.473-0.9283-23.208-0.8175-18.261-2.7132-54.77-2.7132-54.77z" fill="url(#c)"/>
  <path d="m835.75 313.99 1.6245 10.3 31.33-0.46415 1.8566-9.4434z" fill="#be091b"/>
  <path d="m833.75 266.99 1.6245 10.3 31.33-0.46415 1.8566-9.4434z" fill="#be091b"/>
  <path d="m833.48 264.32 1.7033 4 32.85-0.18025 1.9467-3.6673z" fill="#690108"/>
  <path d="m836.48 311.32 1.7033 4 32.85-0.18025 1.9467-3.6673z" fill="#690108"/>
  <path d="m825.18 257.33h16.102s0.74076 23.838 1.4642 35.74c1.7516 28.818 6.9623 86.332 6.9623 86.332l-18.102 1.3924s-1.5099-5.523-1.8566-8.3547c-1.5047-12.289-0.52615-24.757-0.9283-37.132-0.25147-7.738-0.58205-15.473-0.9283-23.208-0.8175-18.261-2.7132-54.77-2.7132-54.77z" fill="url(#c)"/>
  <path d="m710.43 253.79 1.1604 5.1057 23.44-0.23207 0.62453-4.8736z" fill="#f01a1d"/>
  <path d="m816.96 252.4 1.1604 6.4981 28.777-0.46415 1.6245-6.4981z" fill="#f01a1d"/>
  <path d="m901.2 256.81 1.1604 5.1057h24.6s1.8566-5.5698 0.69622-5.5698-26.457 0.46415-26.457 0.46415z" fill="#f01a1d"/>
  <path d="m709.36 254.21h27.153s-6.7287-2.3524-9.9698-3.8232c-1.4372-0.65217-4.1868-2.2108-4.1868-2.2108s-3.3655 2.0029-5.1299 2.846c-2.5528 1.2199-7.8663 3.1879-7.8663 3.1879z" fill="#350000"/>
  <path d="m816.63 252.32h32.404s-8.03-2.3524-11.898-3.8232c-1.7151-0.65217-4.9965-2.2108-4.9965-2.2108s-4.0164 2.0029-6.122 2.846c-3.0465 1.2199-9.3876 3.1879-9.3876 3.1879z" fill="#350000"/>
  <path d="m759.62 195.78s-0.0299 1.0353-0.0312 1.0938c0.21092 0.0289 5.572 0.77566 8.3438 0.625 1.56-0.0848 3.7044-0.48696 5.4688-0.875 2e-4 -0.0419 0-0.84375 0-0.84375h-13.781z" fill="url(#q)"/>
  <path d="m754.22 189.2 1.3587 7.112 22.743-0.23208-0.23207-8.1227z" fill="#f01c2a"/>
  <path d="m730.09375,338.3125c-.0508.015-.12338.0467-.1875.0937-1.36535,1.00233-.77216,7.5455-2,7.09375-1.65467-.60879.7638-4.86064-.96875-5.1875-.81993-.15469-.48789,1.99758-1.3125,2.125-.80536.12445-1.0791-1.87553-1.84375-1.59375-.93258.34366.46595,2.59967-.46875,2.9375-.55114.1992-1.02679-.64458-1.3125-1.15625-.29424-.52694.0956-1.33658-.3125-1.78125-.41565-.45295-1.16655-.47685-1.78125-.46875-.13453.002-.28241.0407-.4375.0625-.022,2.57242-.0312,6.28125-.0312,6.28125l.3125,11.90625h-.0937c.0168.13703.0579.28345.0937.40625 .003.009-.003.0223 0,.0312v.125h.0625c.69785,1.82728 3.62175,2 7.09375,2 3.68294,0 6.7143-.35868 7.1875-2.34375h.0937c0,0-.0302-.52121-.0312-.5625-.0226-.86638-.2502-10.07104-.625-18.0625-.79104.40626-1.56695.73813-2.21875.84375-1.0962.17764-.45625-2.97522-1.21875-2.75z" fill="url(#k)"/>
  <path d="m798.03 357.56s4.1525 4.3708 3.9375 6.875c-0.15653 1.8232-4.0044 2.0463-3.7188 4.6562 0.31251 2.8551 4.7668-0.74397 4.875 2.1562 0.1268 3.4002-5.4971 0.37431-5.4688 3.7812 0.0275 3.3012 5.5269 0.11531 5.375 3.4062-0.14578 3.1578-4.8402-1.2474-5.375 1.7812-0.34279 1.9413 2.4424 2.2824 2.4688 4.3125 0.0283 2.1815-2.6906 2.6793-2.5312 4.8438 0.20108 2.7316 3.914 1.7478 3.9688 4.5 0.098 4.9266-6.9662 4.6068-6.7812 8.875 1.0076 23.253 4.5884 23.959 5.9062 3.3125 0.12904-2.0217 0.90358-4.1887 1.9062-5.375 1.619-1.9155 5.0823 1.3668 5.7812-1.8125 0.68663-3.1233-4.2093-4.746-3.5312-7.875 0.52416-2.4189 3.8503 0.98104 4.375-1.4375 0.55499-2.5582-3.494-3.9328-2.9062-6.4688 0.72947-3.1474 5.2198 1.8122 5.7812-1.4375 0.44334-2.5662-3.5341-2.6384-3.4375-5.3125 0.0823-2.2801 3.1542-1.5965 3.25-3.875 0.13598-3.2346-4.8046-3.5732-4.125-6.5938 0.29883-1.3282 1.8066 0.37503 2.4688 0 3.0115-1.7055 3.375-8.25 3.375-8.25l-15.594-0.0625zm-63.75 1.375-14.844 0.9375s-0.72919 5.6368-2.3125 7.875c-1.9839 2.8045-9.0168 2.6565-8.375 6.0312 0.70212 3.6918 10.694-0.96887 10.938 2.7812 0.28489 4.3966-12.345 0.50092-12.281 4.9062 0.0618 4.2686 12.373 0.15091 12.031 4.4062-0.32754 4.0832-10.861-1.6037-12.062 2.3125-0.77017 2.5101 5.5033 2.9375 5.5625 5.5625 0.0636 2.8208-6.0767 3.4513-5.7188 6.25 0.45179 3.532 8.8458 2.2538 8.9688 5.8125 0.22009 6.3703-15.697 5.9811-15.281 11.5 2.2639 30.067 10.352 30.978 13.312 4.2812 0.28992-2.6142 2.0285-5.4348 4.2812-6.9688 3.6374-2.4768 11.43 1.7984 13-2.3125 1.5427-4.0386-9.5234-6.1728-8-10.219 1.1777-3.1277 8.6961 1.2835 9.875-1.8438 1.2469-3.3078-7.8518-5.0646-6.5312-8.3438 1.6389-4.0697 11.739 2.327 13-1.875 0.99607-3.3183-7.9982-3.4173-7.7812-6.875 0.18497-2.9483 7.1285-2.0538 7.3438-5 0.30553-4.1824-10.777-4.6255-9.25-8.5312 0.67139-1.7175 4.3146 1.3857 5.5312 0 2.3678-2.6967-1.4062-10.688-1.4062-10.688zm195.41 1.4062-15.594 0.0625s0.36351 8.4822 3.375 10.688c0.66219 0.48492 2.1699-1.7175 2.4688 0 0.67957 3.9057-4.261 4.3488-4.125 8.5312 0.0958 2.9462 3.1677 2.0517 3.25 5 0.0966 3.4577-3.8808 3.5567-3.4375 6.875 0.56142 4.202 5.0518-2.1947 5.7812 1.875 0.58777 3.2791-3.4612 5.0359-2.9062 8.3438 0.5247 3.1273 3.8508-1.284 4.375 1.8438 0.67804 4.0459-4.2179 6.1801-3.5312 10.219 0.69892 4.1109 4.1623-0.13305 5.7812 2.3438 1.0027 1.5339 1.7772 4.3233 1.9062 6.9375 1.3178 26.697 4.8986 25.786 5.9062-4.2812 0.18496-5.5189-6.8792-5.1297-6.7812-11.5 0.0547-3.5587 3.7677-2.2805 3.9688-5.8125 0.15934-2.7987-2.5596-3.4292-2.5312-6.25 0.0263-2.625 2.8115-3.0524 2.4688-5.5625-0.53481-3.9162-5.2292 1.7707-5.375-2.3125-0.15194-4.2553 5.3475-0.13769 5.375-4.4062 0.0284-4.4053-5.5956-0.47843-5.4688-4.875 0.10815-3.7501 4.5625 0.87931 4.875-2.8125 0.28567-3.3748-3.5622-3.6738-3.7188-6.0312-0.21501-3.238 3.9375-8.875 3.9375-8.875zm-39.625 4.5-27.969 0.0625s0.6689 7.8607 6.0625 9.9062c1.186 0.44979 3.871-1.593 4.4062 0 1.2171 3.6228-7.6185 4.0268-7.375 7.9062 0.17158 2.7328 5.6964 1.8903 5.8438 4.625 0.17295 3.2072-7.0128 3.3284-6.2188 6.4062 1.0055 3.8976 9.0998-2.0561 10.406 1.7188 1.0527 3.0416-6.2127 4.6818-5.2188 7.75 0.93976 2.9007 6.905-1.1824 7.8438 1.7188 1.2144 3.7528-7.6048 5.7227-6.375 9.4688 1.2518 3.8131 7.4754-0.14112 10.375 2.1562 1.7958 1.4228 3.1752 4.044 3.4062 6.4688 2.3602 24.763 8.8203 23.92 10.625-3.9688 0.33125-5.1191-12.363-4.7787-12.188-10.688 0.098-3.3009 6.7961-2.0989 7.1562-5.375 0.28537-2.596-4.6133-3.196-4.5625-5.8125 0.0472-2.4348 5.0514-2.828 4.4375-5.1562-0.95784-3.6324-9.3639 1.6312-9.625-2.1562-0.27212-3.947 9.5444-0.10318 9.5938-4.0625 0.0508-4.0862-10.008-0.48444-9.7812-4.5625 0.19369-3.4784 8.159 0.86185 8.7188-2.5625 0.51165-3.1303-6.3759-3.4071-6.6562-5.5938-0.38507-3.0034 7.0938-8.25 7.0938-8.25zm-110.28 10.5-27.969 0.0625s0.6689 7.8607 6.0625 9.9062c1.186 0.44979 3.871-1.593 4.4062 0 1.2171 3.6228-7.6185 4.0268-7.375 7.9062 0.17158 2.7328 5.6964 1.9216 5.8438 4.6562 0.17295 3.2072-7.0128 3.2971-6.2188 6.375 1.0055 3.8976 9.0998-2.0561 10.406 1.7188 1.0527 3.0416-6.2127 4.6818-5.2188 7.75 0.93976 2.9007 6.9362-1.1824 7.875 1.7188 1.2144 3.7528-7.6048 5.7227-6.375 9.4688 1.2518 3.8131 7.4442-0.14112 10.344 2.1562 1.7958 1.4228 3.1752 4.044 3.4062 6.4688 2.3602 24.763 8.8203 23.92 10.625-3.9688 0.33125-5.1191-12.363-4.7787-12.188-10.688 0.098-3.3009 6.7961-2.0989 7.1562-5.375 0.28537-2.596-4.6133-3.196-4.5625-5.8125 0.0472-2.4348 5.0514-2.828 4.4375-5.1562-0.95784-3.6324-9.3639 1.6312-9.625-2.1562-0.27212-3.947 9.5444-0.10318 9.5938-4.0625 0.0508-4.0862-10.008-0.45319-9.7812-4.5312 0.19369-3.4784 8.159 0.8306 8.7188-2.5938 0.51165-3.1303-6.3759-3.4071-6.6562-5.5938-0.38507-3.0034 7.0938-8.25 7.0938-8.25zm53.5 4.5s4.1838 4.3708 3.9688 6.875c-0.15653 1.8232-4.0044 2.0463-3.7188 4.6562 0.31251 2.8551 4.7668-0.74397 4.875 2.1562 0.1268 3.4002-5.4971 0.37431-5.4688 3.7812 0.0275 3.3012 5.4957 0.11531 5.3438 3.4062-0.14578 3.1578-4.8402-1.2474-5.375 1.7812-0.34279 1.9413 2.4737 2.2824 2.5 4.3125 0.0283 2.1815-2.7218 2.6793-2.5625 4.8438 0.20108 2.7316 3.9453 1.7478 4 4.5 0.098 4.9266-6.9975 4.6068-6.8125 8.875 1.0076 23.253 4.6197 23.959 5.9375 3.3125 0.12904-2.0217 0.90358-4.1887 1.9062-5.375 1.619-1.9155 5.0823 1.3668 5.7812-1.8125 0.68663-3.1233-4.2405-4.746-3.5625-7.875 0.52416-2.4189 3.8816 0.98104 4.4062-1.4375 0.55499-2.5582-3.494-3.9328-2.9062-6.4688 0.72947-3.1474 5.2198 1.8122 5.7812-1.4375 0.44334-2.5662-3.5653-2.6384-3.4688-5.3125 0.0823-2.2801 3.1854-1.5965 3.2812-3.875 0.13598-3.2346-4.8046-3.5732-4.125-6.5938 0.29883-1.3282 1.8066 0.37503 2.4688 0 3.0115-1.7055 3.375-8.2812 3.375-8.2812l-15.625-0.0312z" fill="url(#f)"/>
  <path d="m759.40625,331.90625c-.51522-.00086-1.04175.13436-1.59375.3125-.83764,7.07708-6.24376,40.4086-6.375,41.21875h-.0312c.004.0349.0261.0594.0312.0937l-.0625.34375h.125c.92072,3.92035 6.8102,4.28125 13.875,4.28125 7.11343,0 12.96292-.63666 13.875-4.3125h.0625c0,0 .00011-.15486 0-.15625s6e-005-.0617 0-.0625c.0479-.25889.0937-.55536.0937-.84375h-.1875c-.1464-1.927-2.35502-31.1609-2.75-35.78125-1.16168.14472-2.27886.20886-3.1875.125-2.14584-.19804-3.90951-2.68945-6.03125-2.3125-1.61931.28769-2.10037,3.54284-3.71875,3.25-2.24787-.40675-1.03879-5.45775-3.25-6.03125-.27782-.0721-.57839-.12451-.875-.125z" fill="url(#l)"/>
  <path d="m842.12 361.59c-0.14101-0.0117-0.2771 0.0187-0.40625 0.0625-2.3644 0.80157-4.2367 3.5808-6.7188 3.3125-0.98494-0.10648-1.3259-1.7544-2.3125-1.8438-1.1846-0.10738-2.4677 0.24342-3.5938 0.875 0.13069 2.8176 0.31315 5.6353 0.65625 8.4375 0.2877 2.3498 1.2272 5.9212 1.5938 7.2812h-0.0937c0.36794 3.0206 4.407 3.2812 9.25 3.2812 5.116 0 9.25-0.51864 9.25-3.7188h-0.0312c-0.01-0.10811-0.70494-7.727-1.5625-17.562-0.77581 0.42902-1.648 0.79857-2.5312 0.96875-1.249 0.24066-2.5129-1.0118-3.5-1.0938z" fill="url(#i)"/>
  <path d="m873.38 329.97c-1.4184 0.17197-1.2482 3.3316-1.6562 4.9375-0.46114 1.815 0.63573 4.2069-0.65625 5.5625-0.91823 0.96344-2.7881 1.3273-3.9375 0.65625-1.1058-0.64562-0.3059-2.8022-1.3125-3.5938-0.82395-0.64788-2.0294-1.1668-3.1875-1.3125-0.44941 12.457-1.7483 26.394-1.7812 26.75h-0.375c0.57476 4.3554 6.8719 4.75 14.438 4.75 7.5305 0 13.685-0.68906 14.375-4.625h0.46875s-2.442-16.416-2.9375-28.938c-1.0175 1.1499-2.0378 2.5681-3.2812 2.375-2.1458-0.33327-2.2536-4.1287-4.2812-4.9062-0.82355-0.31581-2.1198-0.41054-2.625 0.3125-0.83594 1.1965 1.6219 2.9608 1 4.2812-0.52118 1.1066-2.215 2.2242-3.2812 1.625-2.2969-1.2908 1.9494-7.4847-0.65625-7.875-0.10925-0.0164-0.21794-0.0115-0.3125 0z" fill="url(#h)"/>
  <g transform="translate(1)">
   <path d="m830.12 267.25-10.25 0.125 1.875 9.4375 6.75 0.0937c1.2195-1.7782 1.9688-4.0975 1.9688-6.6562 0-1.0444-0.11488-2.0525-0.34375-3z" fill="#be091b"/>
   <path d="m829.03 264.44-10.562 0.0312 1.9688 3.6875 9.875 0.0312c-0.21931-1.3799-0.67296-2.6381-1.2812-3.75z" fill="#690108"/>
  </g>
  <g transform="translate(2,47)">
   <path d="m830.12 267.25-10.25 0.125 1.875 9.4375 6.75 0.0937c1.2195-1.7782 1.9688-4.0975 1.9688-6.6562 0-1.0444-0.11488-2.0525-0.34375-3z" fill="#be091b"/>
   <path d="m829.03 264.44-10.562 0.0312 1.9688 3.6875 9.875 0.0312c-0.21931-1.3799-0.67296-2.6381-1.2812-3.75z" fill="#690108"/>
  </g>
  <g transform="translate(-109,-2)">
   <path d="m830.12 267.25-10.25 0.125 1.875 9.4375 6.75 0.0937c1.2195-1.7782 1.9688-4.0975 1.9688-6.6562 0-1.0444-0.11488-2.0525-0.34375-3z" fill="#be091b"/>
   <path d="m829.03 264.44-10.562 0.0312 1.9688 3.6875 9.875 0.0312c-0.21931-1.3799-0.67296-2.6381-1.2812-3.75z" fill="#690108"/>
  </g>
  <g transform="translate(-107,44)">
   <path d="m830.12 267.25-10.25 0.125 1.875 9.4375 6.75 0.0937c1.2195-1.7782 1.9688-4.0975 1.9688-6.6562 0-1.0444-0.11488-2.0525-0.34375-3z" fill="#be091b"/>
   <path d="m829.03 264.44-10.562 0.0312 1.9688 3.6875 9.875 0.0312c-0.21931-1.3799-0.67296-2.6381-1.2812-3.75z" fill="#690108"/>
  </g>
 </g>
</svg>
