<?xml version="1.0" encoding="UTF-8"?>
<!DOCTYPE svg  PUBLIC '-//W3C//DTD SVG 20010904//EN'  'http://www.w3.org/TR/2001/REC-SVG-20010904/DTD/svg10.dtd'>
<svg width="460" height="418.75" version="1.0" viewBox="0 0 368.000000 335.000000" xmlns="http://www.w3.org/2000/svg">
 <g transform="translate(0 335) scale(.1 -.1)">
  <path d="m244 3342c3-5 23-13 43-17 21-4 96-26 168-50 361-118 583-292 719-562 37-74 86-227 86-268 0-23-1-23-102 17-349 135-707 138-983 9-44-21-86-45-94-55-13-15-12-16 15-6 65 25 226 60 325 70 213 23 447-29 588-129l30-22-6 36c-3 19-3 35 0 35 19 0 115-45 153-71 107-73 85-171-35-155-39 5-53 3-74-14-25-20-25-20-109 0-218 51-554 87-718 75-96-7-226-31-234-43-2-4 82-7 187-8 334 0 609-61 870-192 65-33 117-58 117-57s-5 16-11 34c-14 40-5 77 25 96 40 26 96-5 157-89 41-56 39-76-10-76-54 0-68-20-38-55 18-21 35-29 73-32 46-5 52-9 70-41 53-101 188-258 246-288 39-20 35-10-16 50-54 64-76 114-76 175 0 58 32 111 119 196 33 33 61 63 61 67 0 5 14 34 32 65l32 57 36-76c30-64 45-83 95-121 103-79 135-149 108-239-13-45-73-127-110-151-30-19-10-26 25-8 67 34 176 164 244 289 12 23 26 32 55 38 78 13 117 64 48 64-38 0-61 27-50 60 9 28 82 90 133 112 35 16 49 18 68 9 28-12 30-37 9-96-8-22-15-41-15-42s35 14 78 34c143 67 337 142 437 169 94 26 116 28 380 33 154 4 273 9 265 13-69 32-439 48-622 28-62-7-176-25-253-41-167-34-171-35-178-9-4 17-13 20-65 18-37-1-67 3-76 11-34 28-11 95 47 142 27 20 132 59 163 59 19 0 18-24-1-40-36-30-3-17 52 20 148 99 359 139 568 110 39-6 126-24 194-40 68-17 126-28 128-26 6 6-110 60-182 84-172 58-415 73-600 38-112-22-262-69-337-107-32-16-62-29-68-29-34 0 41 234 115 359 61 102 180 231 287 311 143 106 371 208 563 251l60 14-74 3c-185 7-456-78-706-224-55-32-138-79-184-105l-84-48 47-12c25-6 49-15 51-20 3-4-9-28-26-53-52-78-130-255-155-354-27-107-32-245-13-362 11-66 11-70-14-113-42-71-90-107-141-107-81 0-151 65-220 205-52 104-81 225-71 296 4 31 3 49-5 54-18 11-22 0-37-97-35-237-97-380-188-434-67-39-139-28-198 32-52 52-61 88-46 179 38 224 2 384-144 650l-49 89 22 18c12 10 31 18 41 18s19 5 19 10c0 18-148 108-315 190-174 86-321 140-467 169-116 24-263 37-254 23z"/>
  <path d="m953 1883c-42-8-24-20 40-27 130-15 291-89 301-139 3-12 7-47 10-78 11-132 105-222 293-279 76-23 163-77 196-121 19-26 19-27-7-102-30-86-47-191-40-245 13-92 16-89 55 60 42 163 47 177 60 157 12-18 54-159 70-231 7-32 16-58 21-58 12 0 10 150-3 212-7 29-22 77-35 107l-24 54 27 39c15 22 48 59 74 82 40 36 57 44 103 50 183 21 282 119 302 299 6 54 9 59 54 92 81 59 203 105 282 105 49 0 58 17 12 26-137 25-382-105-564-300-78-84-193-197-258-254-60-53-64-54-89-41-31 17-249 231-316 311-60 72-191 177-277 222-104 55-203 75-287 59zm469-245c7-13 13-41 13-63 0-34 4-40 23-43 12-2 22 1 22 7s4 11 9 11c11 0 105-109 99-115-2-3-28 1-56 8-97 26-152 89-152 177 0 46 21 55 42 18zm908-21c-1-77-53-141-141-172-80-29-86-21-33 43 27 31 50 59 51 61 2 3 9-1 15-7 7-7 20-12 30-12 15 0 18 8 18 45 0 32 6 51 20 65 26 26 40 18 40-23z"/>
  <path d="m880 1771c-49-15-87-40-124-81-21-23-36-44-33-46 2-2 30 9 63 26 175 89 328 33 368-134 9-37-10-93-35-101-10-4-19-14-19-23 0-31 124-135 216-183 87-45 179-77 190-66 3 3-23 25-58 48-173 118-228 220-194 364l14 59-32 31c-89 83-261 135-356 106z"/>
  <path d="m2676 1769c-45-11-158-69-200-104l-29-24 13-69c28-152-19-242-190-357-88-59-74-71 36-30 95 36 200 104 262 169 53 56 63 76 38 76-23 0-46 41-46 83 0 82 68 167 154 192 63 19 135 7 215-36 30-16 56-27 59-24 7 7-36 57-76 86-63 46-145 59-236 38z"/>
  <path d="m1285 1483c12-51 36-91 83-140 46-47 178-153 192-153 10 0 38-105 45-168 3-29 23-101 44-160 46-129 56-178 41-216-13-35-5-46 16-24 28 28 28 97 0 207-21 83-26 125-26 226 0 72 4 126 10 130 15 9 12 41-5 55-9 7-38 17-65 21-108 17-253 114-306 205-30 51-39 56-29 17z"/>
  <path d="m2386 1467c-54-94-191-187-308-211-71-14-101-42-73-69 26-27 21-229-10-352-29-115-31-171-9-203 21-31 36-28 23 5-15 39-4 94 41 225 22 62 42 133 45 158 15 125 25 149 79 187 137 99 211 180 236 256 17 54 7 56-24 4z"/>
  <path d="m1522 983c34-69 48-144 51-258 2-104-9-122-51-78l-28 31-32-46c-60-90-61-95-13-147 55-60 117-157 214-335 73-134 78-141 73-99-7 61-60 185-151 350-41 76-75 140-75 143s9 10 21 16c16 9 26 8 45-5 15-10 33-13 46-9 20 6 21 10 14 120-10 175-54 321-108 358-36 25-36 20-6-41z"/>
  <path d="m2177 1029c-60-35-105-180-114-361l-6-128h26c14 0 29 5 32 10 10 16 55 11 62-7 4-9-2-30-12-47-62-106-168-323-189-388-29-84-31-98-16-98 6 0 10 4 10 10 0 15 154 292 202 362 23 35 59 81 80 104l38 41-25 49c-14 27-34 60-44 73l-19 25-24-29c-41-47-58-30-58 58 0 124 29 247 72 310 20 28 15 34-15 16z"/>
  <path d="m1645 512c-46-29-58-47-46-71 15-28 60-61 83-61 19 0 19 1-1 26-16 21-18 30-10 40 31 38 83-9 83-74 0-27-8-42-37-68-20-19-37-35-37-37 0-1 24-28 53-59s68-86 87-121l34-64 23 50c25 52 118 177 134 177 18 0 9 18-26 53-27 27-35 43-35 70 0 43 33 87 66 87 31 0 32-25 2-57-27-29-18-39 21-23s59 39 67 77c5 26 2 34-19 48-87 57-182 7-208-109-10-45-9-57 5-84 9-17 16-40 16-51 0-44-78-52-100-10-9 16-7 27 9 55 37 63 24 129-37 187-38 36-88 44-127 19z"/>
 </g>
</svg>
