<?xml version='1.0' encoding='utf-8'?>
<svg xmlns="http://www.w3.org/2000/svg" version="1.1" id="Layer_1" x="0px" y="0px" viewBox="0 0 680.3 677.5" style="enable-background:new 0 0 680.3 677.5;"> <style type="text/css"> .st0{fill:none;stroke:#000000;stroke-miterlimit:10;} </style> <g> <g> <polyline class="st0" points="620.8,340.2 337.3,340.2 337.3,53.9 "/> <line class="st0" x1="337.3" y1="53.9" x2="365.7" y2="340.2"/> <line class="st0" x1="337.3" y1="85" x2="391.2" y2="340.2"/> <line class="st0" x1="337.3" y1="113.4" x2="422.4" y2="340.2"/> <line class="st0" x1="337.3" y1="138.9" x2="450.7" y2="340.2"/> <line class="st0" x1="337.3" y1="170.1" x2="479.1" y2="340.2"/> <line class="st0" x1="337.3" y1="198.4" x2="507.4" y2="340.2"/> <line class="st0" x1="337.3" y1="226.8" x2="532.9" y2="340.2"/> <line class="st0" x1="337.3" y1="255.1" x2="564.1" y2="340.2"/> <line class="st0" x1="337.3" y1="283.5" x2="595.3" y2="340.2"/> <line class="st0" x1="337.3" y1="311.8" x2="620.8" y2="340.2"/> </g> <g> <polyline class="st0" points="53.9,340.2 337.3,340.2 337.3,53.9 "/> <line class="st0" x1="337.3" y1="53.9" x2="309" y2="340.2"/> <line class="st0" x1="337.3" y1="85" x2="283.5" y2="340.2"/> <line class="st0" x1="337.3" y1="113.4" x2="252.3" y2="340.2"/> <line class="st0" x1="337.3" y1="138.9" x2="223.9" y2="340.2"/> <line class="st0" x1="337.3" y1="170.1" x2="195.6" y2="340.2"/> <line class="st0" x1="337.3" y1="198.4" x2="167.2" y2="340.2"/> <line class="st0" x1="337.3" y1="226.8" x2="141.7" y2="340.2"/> <line class="st0" x1="337.3" y1="255.1" x2="110.6" y2="340.2"/> <line class="st0" x1="337.3" y1="283.5" x2="79.4" y2="340.2"/> <line class="st0" x1="337.3" y1="311.8" x2="53.9" y2="340.2"/> </g> <g> <polyline class="st0" points="620.8,340.2 337.3,340.2 337.3,626.5 "/> <line class="st0" x1="337.3" y1="626.5" x2="365.7" y2="340.2"/> <line class="st0" x1="337.3" y1="595.3" x2="391.2" y2="340.2"/> <line class="st0" x1="337.3" y1="566.9" x2="422.4" y2="340.2"/> <line class="st0" x1="337.3" y1="541.4" x2="450.7" y2="340.2"/> <line class="st0" x1="337.3" y1="510.2" x2="479.1" y2="340.2"/> <line class="st0" x1="337.3" y1="481.9" x2="507.4" y2="340.2"/> <line class="st0" x1="337.3" y1="453.5" x2="532.9" y2="340.2"/> <line class="st0" x1="337.3" y1="425.2" x2="564.1" y2="340.2"/> <line class="st0" x1="337.3" y1="396.9" x2="595.3" y2="340.2"/> <line class="st0" x1="337.3" y1="368.5" x2="620.8" y2="340.2"/> </g> <g> <polyline class="st0" points="53.9,340.2 337.3,340.2 337.3,626.5 "/> <line class="st0" x1="337.3" y1="626.5" x2="309" y2="340.2"/> <line class="st0" x1="337.3" y1="595.3" x2="283.5" y2="340.2"/> <line class="st0" x1="337.3" y1="566.9" x2="252.3" y2="340.2"/> <line class="st0" x1="337.3" y1="541.4" x2="223.9" y2="340.2"/> <line class="st0" x1="337.3" y1="510.2" x2="195.6" y2="340.2"/> <line class="st0" x1="337.3" y1="481.9" x2="167.2" y2="340.2"/> <line class="st0" x1="337.3" y1="453.5" x2="141.7" y2="340.2"/> <line class="st0" x1="337.3" y1="425.2" x2="110.6" y2="340.2"/> <line class="st0" x1="337.3" y1="396.9" x2="79.4" y2="340.2"/> <line class="st0" x1="337.3" y1="368.5" x2="53.9" y2="340.2"/> </g> </g> </svg>